<svg width="128" height="27" viewBox="0 0 128 27" fill="none" xmlns="http://www.w3.org/2000/svg">
<path d="M12.216 1.088C19.256 1.088 24.12 6.336 24.12 12.736C24.12 16.256 22.648 19.424 20.152 21.6L23.832 26.56H19.256L16.984 23.52C15.576 24.096 13.944 24.416 12.216 24.416C5.176 24.416 0.344 19.136 0.344 12.736C0.344 6.336 5.176 1.088 12.216 1.088ZM9.048 12.768H13.624L17.688 18.272C19.032 16.896 19.8 14.944 19.8 12.736C19.8 8.512 16.696 5.024 12.216 5.024C7.736 5.024 4.664 8.512 4.664 12.736C4.664 17.088 7.736 20.512 12.216 20.512C13.048 20.512 13.816 20.384 14.552 20.192L9.048 12.768ZM38.0775 17.024V7.776H42.1095V24H38.2695V21.888C37.1175 23.616 35.3255 24.416 33.4695 24.416C29.7895 24.416 27.6135 21.792 27.6135 18.24V7.776H31.6135V17.184C31.6135 19.136 32.5415 20.768 34.7175 20.768C37.0535 20.768 38.0775 18.944 38.0775 17.024ZM48.7895 0.351999C50.4215 0.351999 51.4135 1.472 51.4135 2.848C51.4135 4.192 50.4215 5.376 48.7895 5.376C47.1575 5.376 46.1975 4.192 46.1975 2.848C46.1975 1.472 47.1575 0.351999 48.7895 0.351999ZM46.8055 24V7.776H50.8055V24H46.8055ZM54.2115 24V21.312L63.0755 11.36H54.7235V7.776H68.1635V10.624L59.6515 20.416H68.6115V24H54.2115Z" fill="black"/>
<path d="M79.9388 24V1.504H88.8028C92.9628 1.504 96.3868 3.424 96.3868 7.232C96.3868 9.376 95.3308 11.2 93.0588 12.288C95.9388 13.152 97.5708 15.168 97.5708 17.728C97.5708 21.92 93.9548 24 89.9548 24H79.9388ZM88.3548 4.928H84.1308V10.912H88.4508C90.4348 10.912 92.0668 9.984 92.0668 7.84C92.0668 5.92 90.4348 4.928 88.3548 4.928ZM89.3788 14.272H84.1308V20.576H89.3788C91.4588 20.576 93.2188 19.552 93.2188 17.312C93.2188 15.264 91.4908 14.272 89.3788 14.272ZM103.008 0.351999C104.64 0.351999 105.632 1.472 105.632 2.848C105.632 4.192 104.64 5.376 103.008 5.376C101.376 5.376 100.416 4.192 100.416 2.848C100.416 1.472 101.376 0.351999 103.008 0.351999ZM101.024 24V7.776H105.024V24H101.024ZM109.939 24V1.504H114.131V10.528H123.219V1.504H127.379V24H123.219V14.496H114.131V24H109.939Z" fill="#2559D2"/>
</svg>
